<?xml version="1.0" standalone="no"?><!DOCTYPE svg PUBLIC "-//W3C//DTD SVG 1.1//EN" "http://www.w3.org/Graphics/SVG/1.1/DTD/svg11.dtd"><svg class="icon" width="200px" height="200.00px" viewBox="0 0 1024 1024" version="1.1" xmlns="http://www.w3.org/2000/svg"><path d="M819.2 641.4848c0 25.8048-20.6592 46.7456-46.08 46.7456h-10.24c-25.4208 0-46.08-20.9408-46.08-46.7456v-67.4304H307.2v67.4304c0 25.8048-20.6336 46.7456-46.08 46.7456h-10.24c-25.4464 0-46.08-20.9408-46.08-46.7456v-67.4304H0v331.776C0 928.768 18.3296 947.2 40.96 947.2h942.08c22.6048 0 40.96-18.432 40.96-41.3696v-331.776h-204.8v67.4304z m163.84-378.112h-204.8V180.352C778.24 123.136 732.3648 76.8 675.84 76.8H348.16c-56.5504 0-102.4 46.336-102.4 103.552v83.0208h-204.8c-22.6304 0-40.96 18.56-40.96 41.3696V512h204.8v-5.248c0-25.6512 20.6336-46.6176 46.08-46.6176h10.24c25.4464 0 46.08 20.9664 46.08 46.6176V512h409.6v-5.248c0-25.6512 20.6592-46.6176 46.08-46.6176h10.24c25.4208 0 46.08 20.9664 46.08 46.6176V512h204.8v-207.2576a41.216 41.216 0 0 0-40.96-41.3696z m-286.72 0H327.68V201.1904c0-28.6208 22.9376-51.84 51.2-51.84h266.24c28.2624 0 51.2 23.2192 51.2 51.84v62.1824z" /></svg>