<?xml version="1.0" standalone="no"?><!DOCTYPE svg PUBLIC "-//W3C//DTD SVG 1.1//EN" "http://www.w3.org/Graphics/SVG/1.1/DTD/svg11.dtd"><svg class="icon" width="200px" height="200.00px" viewBox="0 0 1024 1024" version="1.1" xmlns="http://www.w3.org/2000/svg"><path d="M995.598 413.1l-407.73-380.074c-20.629-23.456-50.365-36.96-81.902-37.036-31.109 0-60.828 13.337-80.566 35.555l-392.721 381.305c-19.603 20.020-25.221 49.184-14.372 75.019 10.868 25.822 35.994 42.050 64.004 42.050h35.359v387.696c0 60.159 48.093 108.959 108.242 108.959h168.611c21.906 0 41.331-17.627 41.331-39.534v-257.861c0-10.955 7.234-20.773 18.178-20.773h119.019c10.944 0 19.307 9.818 19.307 20.773v257.861c0 21.909 18.294 39.534 40.204 39.534h168.611c60.15 0 109.374-48.801 109.374-108.959v-387.698h35.181c27.953 0 53.017-16.167 63.907-41.886 10.924-25.724 5.423-54.86-14.028-74.928v-0.001z" /></svg>