<?xml version="1.0" standalone="no"?><!DOCTYPE svg PUBLIC "-//W3C//DTD SVG 1.1//EN" "http://www.w3.org/Graphics/SVG/1.1/DTD/svg11.dtd"><svg class="icon" width="200px" height="200.00px" viewBox="0 0 1024 1024" version="1.1" xmlns="http://www.w3.org/2000/svg"><path d="M941.87 617.158h-54.195c-8.79 31.88-21.489 62.152-37.652 90.182l50.09 50.159c32.073 32.071 32.073 84.09 0 116.158l-29.052 29.057c-32.073 32.067-84.09 32.067-116.158 0l-50.418-50.418c-27.962 15.91-58.111 28.354-89.86 37.01v52.595c0 45.349-36.75 82.099-82.1 82.099h-41.05c-45.344 0-82.1-36.75-82.1-82.099v-52.595c-31.749-8.656-61.892-21.037-89.86-37.01l-50.413 50.418c-32.071 32.067-84.09 32.067-116.158 0l-29.057-29.12c-32.072-32.074-32.072-84.086 0-116.159l50.095-50.159c-16.163-28.03-28.798-58.301-37.65-90.182H82.13c-45.348 0-82.098-36.75-82.098-82.099v-41.047c0-45.348 36.75-82.104 82.098-82.104h53.56c8.53-31.621 20.65-61.702 36.369-89.537l-48.172-48.236c-32.072-32.071-32.072-84.085 0-116.156l28.99-29.06c32.071-32.066 84.09-32.066 116.162 0l47.272 47.273c28.862-16.804 60.034-29.89 93.001-38.87v-55.16C409.312 36.75 446.062 0 491.411 0h41.052c45.348 0 82.098 36.75 82.098 82.099v55.16c32.968 8.979 64.204 22.128 93.07 38.933l47.208-47.272c32.067-32.068 84.086-32.068 116.158 0l29.053 29.057c32.072 32.073 32.072 84.09 0 116.158l-48.104 48.172c15.714 27.899 27.835 57.983 36.369 89.537h53.555c45.349 0 82.098 36.756 82.098 82.104v41.047c0 45.412-36.75 82.163-82.098 82.163zM512.003 254.57c-144.252 0-261.183 116.931-261.183 261.182 0 144.252 116.931 261.182 261.183 261.182 144.251 0 261.241-116.93 261.241-261.182 0-144.25-116.99-261.182-261.24-261.182z m0 361.304c-56.702 0-102.691-45.99-102.691-102.686 0-56.7 45.99-102.627 102.691-102.627 56.697 0 102.622 45.99 102.622 102.627 0 56.697-45.925 102.686-102.622 102.686z m0 0"  /></svg>