<?xml version="1.0" standalone="no"?><!DOCTYPE svg PUBLIC "-//W3C//DTD SVG 1.1//EN" "http://www.w3.org/Graphics/SVG/1.1/DTD/svg11.dtd"><svg class="icon" width="200px" height="200.00px" viewBox="0 0 1024 1024" version="1.1" xmlns="http://www.w3.org/2000/svg"><path d="M880.152381 807.009524h-41.447619V431.542857c0-24.380952-19.504762-46.32381-46.32381-46.323809h-114.590476c-24.380952 0-46.32381 19.504762-46.323809 46.323809v375.466667h-53.638096V216.990476c0-24.380952-19.504762-46.32381-46.323809-46.323809H256c-24.380952 0-46.32381 19.504762-46.32381 46.323809v592.457143H143.847619c-12.190476 0-21.942857 9.752381-21.942857 21.942857s9.752381 21.942857 21.942857 21.942857H877.714286c12.190476 0 21.942857-9.752381 21.942857-21.942857 2.438095-12.190476-7.314286-24.380952-19.504762-24.380952zM314.514286 285.257143h156.038095c14.628571 0 26.819048 9.752381 26.819048 21.942857s-12.190476 21.942857-26.819048 21.942857h-156.038095c-14.628571 0-26.819048-9.752381-26.819048-21.942857s14.628571-21.942857 26.819048-21.942857z m0 158.47619h156.038095c14.628571 0 26.819048 9.752381 26.819048 21.942857s-12.190476 21.942857-26.819048 21.942858h-156.038095c-14.628571 0-26.819048-9.752381-26.819048-21.942858s14.628571-21.942857 26.819048-21.942857z m0 158.476191h156.038095c14.628571 0 26.819048 9.752381 26.819048 21.942857s-12.190476 21.942857-26.819048 21.942857h-156.038095c-14.628571 0-26.819048-9.752381-26.819048-21.942857 2.438095-9.752381 14.628571-21.942857 26.819048-21.942857z"  /></svg>