<?xml version="1.0" standalone="no"?><!DOCTYPE svg PUBLIC "-//W3C//DTD SVG 1.1//EN" "http://www.w3.org/Graphics/SVG/1.1/DTD/svg11.dtd"><svg class="icon" width="200px" height="200.00px" viewBox="0 0 1024 1024" version="1.1" xmlns="http://www.w3.org/2000/svg"><path d="M887.120005 462.606033 887.120005 246.310825 763.706207 246.310825 640.317992 246.310825l-29.730115 0L516.906242 246.310825l0-87.052658L240.374114 159.258167l0 0.340761L128.037607 271.692912l0 190.912098L64.303027 462.60501l0 402.1358 895.392924 0L959.69595 462.606033 887.120005 462.606033zM842.42813 291.0027l0 171.60231-78.721923 0L763.706207 291.0027 842.42813 291.0027zM655.268496 291.0027l63.73458 0 0 171.60231-78.685084 0L640.317992 291.0027 655.268496 291.0027zM623.643218 721.964012l-223.848231 0L399.794987 610.039897l223.848231 0L623.643218 721.964012zM531.868001 291.0027l63.759139 0 0 171.60231L516.906242 462.60501 516.906242 291.0027 531.868001 291.0027zM172.729481 316.384787 285.065989 316.384787 285.065989 203.951065l187.122795 0 0 258.654968-299.460326 0L172.728458 316.384787z" /></svg>