<svg t="1605076225886" class="icon" viewBox="0 0 1024 1024" version="1.1" xmlns="http://www.w3.org/2000/svg" p-id="2522" width="200" height="200"><path d="M921.6 1024H102.4a102.4 102.4 0 0 1-102.4-102.4V102.4a102.4 102.4 0 0 1 102.4-102.4h819.2a102.4 102.4 0 0 1 102.4 102.4v819.2a102.4 102.4 0 0 1-102.4 102.4z m0-870.4a51.2 51.2 0 0 0-51.2-51.2H153.6a51.2 51.2 0 0 0-51.2 51.2v716.8a51.2 51.2 0 0 0 51.2 51.2h716.8a51.2 51.2 0 0 0 51.2-51.2V153.6z m-154.624 525.568A90.368 90.368 0 0 1 674.816 768h-54.272a22.2208 22.2208 0 0 1-22.528-21.7088v-173.2608a22.2208 22.2208 0 0 1 22.528-21.7088h95.744v-61.44a187.6992 187.6992 0 0 0-190.976-184.32h-26.624A188.16 188.16 0 0 0 307.2 489.8816v61.44h95.744a21.9136 21.9136 0 0 1 22.528 21.7088v173.2608a21.9136 21.9136 0 0 1-22.528 21.7088H348.672a90.6752 90.6752 0 0 1-92.16-88.832v-16.64H256V489.9328a222.976 222.976 0 0 1 18.944-91.0848 239.616 239.616 0 0 1 22.528-39.7312 221.1328 221.1328 0 0 1 29.696-34.6112 237.2608 237.2608 0 0 1 35.84-28.5696 243.8144 243.8144 0 0 1 40.96-21.5552A250.5728 250.5728 0 0 1 498.688 256h26.624a246.1184 246.1184 0 0 1 94.208 18.3808 270.3872 270.3872 0 0 1 41.472 21.5552 261.888 261.888 0 0 1 35.84 28.5696 255.2832 255.2832 0 0 1 29.696 34.6112 236.9536 236.9536 0 0 1 22.016 39.7312A223.4368 223.4368 0 0 1 768 489.9328v172.5952h-1.024v16.64z" p-id="2523"></path></svg>