<svg t="1605076247130" class="icon" viewBox="0 0 1024 1024" version="1.1" xmlns="http://www.w3.org/2000/svg" p-id="3299" width="200" height="200"><path d="M715.2 200H904c0-7.2-3.2-14.4-8.8-19.2L731.2 17.6c-4.8-4.8-11.2-7.2-17.6-7.2v188.8s0.8 0.8 1.6 0.8" p-id="3300"></path><path d="M724 349.6v39.2c0 8.8-7.2 16.8-16.8 16.8H309.6c-8.8 0-16.8-7.2-16.8-16.8v-39.2c0-8.8 7.2-16.8 16.8-16.8h398.4c8.8 0 16 8 16 16.8z m0 182.4c0 8.8-7.2 16.8-16.8 16.8H309.6c-8.8 0-16.8-7.2-16.8-16.8v-39.2c0-8.8 7.2-16.8 16.8-16.8h398.4c8.8 0 16.8 7.2 16.8 16.8v39.2z m0 144c0 8.8-7.2 16.8-16.8 16.8H309.6c-8.8 0-16.8-7.2-16.8-16.8v-39.2c0-8.8 7.2-16.8 16.8-16.8h398.4c8.8 0 16.8 7.2 16.8 16.8v39.2z m-46.4-464V9.6H153.6c-22.4 0-40.8 18.4-40.8 40.8v924.8c0 22.4 18.4 40.8 40.8 40.8h709.6c22.4 0 40.8-18.4 40.8-40.8V236H701.6c-13.6 0-24-10.4-24-24z" p-id="3301"></path></svg>