<svg t="1607491795744" class="icon" viewBox="0 0 1024 1024" version="1.1" xmlns="http://www.w3.org/2000/svg" p-id="872"
    width="200" height="200">
    <path
        d="M1014.4 805.12l-201.6 201.6c-9.6 8.32-12.16 16-29.44 16.64s-16.64-5.76-29.44-16.64l-64-64a32 32 0 0 1 0-46.08 32.64 32.64 0 0 1 46.08 0l48 45.44 184.96-182.4a33.28 33.28 0 0 1 47.36 0 32 32 0 0 1-1.92 45.44zM560 576a412.16 412.16 0 0 1 151.68 104.96 275.84 275.84 0 0 0-47.36 51.2 339.84 339.84 0 0 0-595.84 224.64V1024H0v-68.48A410.24 410.24 0 0 1 259.2 576a307.2 307.2 0 1 1 300.8 0zM409.6 64a241.28 241.28 0 1 0 241.28 243.2A241.28 241.28 0 0 0 409.6 64z"
        p-id="873"></path>
</svg>