<svg t="1605076091180" class="icon" viewBox="0 0 1280 1024" version="1.1" xmlns="http://www.w3.org/2000/svg" p-id="1750" width="200" height="200"><path d="M564.8 671.2c0 10.6 8.5 19 18.9 19 3.5 0 6.8-1 9.7-2.6l137.4-80c6.4-3 10.9-9.5 10.9-17.2 0-7-3.8-13.3-9.5-16.6L598 495.6c-5.7-3.8-10.8-6.4-16.4-6.4-10.5 0-16.9 9.1-16.9 19.5V509.3l0.3 159.8c-0.2 0.7-0.2 1.4-0.2 2.1z" fill="#4D4D4D" p-id="1751"></path><path d="M923.2 154.3H336.4c-56.3 0-102.4 46.1-102.4 102.4v511.8c0 56.3 46.1 102.4 102.4 102.4H563v0.1h326v-0.1h34.2c56.3 0 102.4-46.1 102.4-102.4V256.7c0-56.3-46.1-102.4-102.4-102.4z m-155.2 51l59.2 102.6h-72.7l-59.2-102.6H768z m-134.1 0l59.2 102.6h-72.6l-59.2-102.6h72.6z m-134.1 0L559 307.9h-76.8l-59.3-102.6h76.9z m-214.7 51.2c0-21.3 13.1-39.6 31.7-47.3l54.2-0.1 49.8 98.8H286.6c-0.5 0-1 0-1.5 0.1v-51.5z m689.6 511.3c0 28.2-23 51.8-51.2 51.8H336.3c-28.2 0-51.2-23.7-51.2-51.8v-409c0.5 0 1 0.1 1.5 0.1h688v408.9h0.1z m0-459.9h-86.1l-59.2-102.6h94.1c28.2 0 51.2 23 51.2 51.2v51.4z" fill="#4D4D4D" p-id="1752"></path></svg>